<svg xmlns="http://www.w3.org/2000/svg" width="32" height="32" viewBox="0 0 32 32">
  <style>
    path {
      fill: #08131a;
    }
    @media (prefers-color-scheme: dark) {
      path {
        fill: #fff;
      }
    }
  </style>
  <path d="M8 3 7 4H6c-2 1-5 3-5 6v2l-1 2v2l1 2v4l1 6 1 1h13l14-1 1-6v-4l1-2v-4l-1-4-3-3-3-1-2-1-2 1H11V3H8Zm2 2v8H8V5h2Zm14 1v7h-2V5h2v1Zm-4 1v5l-1-1h-4l-2 1h-1V6h8v1ZM6 7v6H2v-1l1-3 3-2c1-1 1-1 0 0Zm21 0c2 1 3 2 3 5v1h-4V7h1Zm-9 6 1 1v2l-1 2v1h-1l-1 1-1-1h-1l-1-3v-2l1-1h4Zm-6 3-5 1-5-1v-1h10v1Zm18-1v1l-5 1h-4v-2h9ZM9 19v3h1v5H8v-9h2l-1 1Zm15 4v4h-2v-5h1v-4h1v5Zm-12-4v1l2 2 2 1a113 113 0 0 1 4-3l1-1 1 1-1 1v1l-2 1a81 81 0 0 1-2 1l2 1h2v1l-1 1-1-1-2-1h-2l-1 1-1 1-1-1-1-1 1-1 1 1 1-1h1l-2-1-1-1-1-1-1-1v-1h2Z"/>
  <path d="m16 15-1 1v2h2v-3h-1Z"/>
</svg>